<svg width="48" height="48" viewBox="0 0 48 48" fill="none" xmlns="http://www.w3.org/2000/svg">
<path d="M0 10C0 4.47715 4.47715 0 10 0H38C43.5229 0 48 4.47715 48 10V38C48 43.5229 43.5228 48 38 48H10C4.47715 48 0 43.5228 0 38V10Z" fill="#2C90B8"/>
<path d="M23.5248 14.295C23.5687 14.2065 23.6364 14.1319 23.7203 14.0798C23.8042 14.0277 23.9011 14.0001 23.9998 14.0001C24.0986 14.0001 24.1955 14.0277 24.2794 14.0798C24.3633 14.1319 24.431 14.2065 24.4748 14.295L26.7848 18.974C26.937 19.282 27.1617 19.5484 27.4395 19.7505C27.7173 19.9525 28.04 20.0841 28.3798 20.134L33.5458 20.89C33.6437 20.9042 33.7357 20.9455 33.8113 21.0092C33.887 21.0729 33.9433 21.1566 33.9739 21.2506C34.0045 21.3447 34.0081 21.4454 33.9844 21.5415C33.9607 21.6375 33.9107 21.725 33.8398 21.794L30.1038 25.432C29.8575 25.6721 29.6731 25.9685 29.5667 26.2956C29.4602 26.6228 29.4349 26.9709 29.4928 27.31L30.3748 32.45C30.3921 32.5479 30.3816 32.6486 30.3443 32.7407C30.3071 32.8328 30.2448 32.9126 30.1644 32.971C30.084 33.0294 29.9888 33.064 29.8897 33.0709C29.7906 33.0778 29.6915 33.0567 29.6038 33.01L24.9858 30.582C24.6816 30.4222 24.343 30.3388 23.9993 30.3388C23.6557 30.3388 23.3171 30.4222 23.0128 30.582L18.3958 33.01C18.3082 33.0564 18.2092 33.0773 18.1103 33.0703C18.0114 33.0632 17.9164 33.0286 17.8361 32.9702C17.7559 32.9119 17.6937 32.8322 17.6565 32.7402C17.6193 32.6483 17.6087 32.5477 17.6258 32.45L18.5068 27.311C18.565 26.9717 18.5398 26.6234 18.4334 26.2961C18.3269 25.9687 18.1425 25.6722 17.8958 25.432L14.1598 21.795C14.0884 21.726 14.0378 21.6384 14.0138 21.5421C13.9898 21.4458 13.9933 21.3446 14.0239 21.2502C14.0546 21.1558 14.1111 21.0719 14.1871 21.008C14.2631 20.9441 14.3556 20.9029 14.4538 20.889L19.6188 20.134C19.9591 20.0845 20.2822 19.9531 20.5604 19.751C20.8386 19.5489 21.0636 19.2823 21.2158 18.974L23.5248 14.295Z" stroke="white" stroke-width="2" stroke-linecap="round" stroke-linejoin="round"/>
</svg>
