<svg width="48" height="48" viewBox="0 0 48 48" fill="none" xmlns="http://www.w3.org/2000/svg">
<path d="M0 10C0 4.47715 4.47715 0 10 0H38C43.5229 0 48 4.47715 48 10V38C48 43.5229 43.5228 48 38 48H10C4.47715 48 0 43.5228 0 38V10Z" fill="#2C90B8"/>
<path d="M28 33V31C28 29.9391 27.5786 28.9217 26.8284 28.1716C26.0783 27.4214 25.0609 27 24 27H18C16.9391 27 15.9217 27.4214 15.1716 28.1716C14.4214 28.9217 14 29.9391 14 31V33" stroke="white" stroke-width="2" stroke-linecap="round" stroke-linejoin="round"/>
<path d="M28 15.1281C28.8578 15.3504 29.6174 15.8513 30.1597 16.5521C30.702 17.2529 30.9962 18.1139 30.9962 19.0001C30.9962 19.8862 30.702 20.7472 30.1597 21.448C29.6174 22.1488 28.8578 22.6497 28 22.8721" stroke="white" stroke-width="2" stroke-linecap="round" stroke-linejoin="round"/>
<path d="M34 33V31C33.9993 30.1137 33.7044 29.2528 33.1614 28.5523C32.6184 27.8519 31.8581 27.3516 31 27.13" stroke="white" stroke-width="2" stroke-linecap="round" stroke-linejoin="round"/>
<path d="M21 23C23.2091 23 25 21.2091 25 19C25 16.7909 23.2091 15 21 15C18.7909 15 17 16.7909 17 19C17 21.2091 18.7909 23 21 23Z" stroke="white" stroke-width="2" stroke-linecap="round" stroke-linejoin="round"/>
</svg>
